<svg xmlns="http://www.w3.org/2000/svg" width="611" height="543" viewBox="0 0 611 543" role="img" aria-label="Hoshikuzu logo mark">
<defs>
  <linearGradient id="hoshikuzu-mark-gradient" x1="35" y1="270" x2="585" y2="270" gradientUnits="userSpaceOnUse">
    <stop offset="0%" stop-color="#06134c"/><stop offset="42%" stop-color="#102466"/><stop offset="68%" stop-color="#4e60ae"/><stop offset="84%" stop-color="#7f8fd6"/><stop offset="100%" stop-color="#a9b6ef"/>
  </linearGradient>
  <linearGradient id="moon-gradient" x1="118" y1="260" x2="450" y2="115" gradientUnits="userSpaceOnUse">
    <stop offset="0%" stop-color="#06134c"/>
    <stop offset="58%" stop-color="#102466"/>
    <stop offset="100%" stop-color="#aab6ef"/>
  </linearGradient>
  <linearGradient id="swoosh-gradient" x1="52" y1="430" x2="508" y2="225" gradientUnits="userSpaceOnUse">
    <stop offset="0%" stop-color="#06134c"/>
    <stop offset="48%" stop-color="#102466"/>
    <stop offset="78%" stop-color="#5366b8"/>
    <stop offset="100%" stop-color="#a0ace9"/>
  </linearGradient>
  <linearGradient id="lower-arc-gradient" x1="218" y1="410" x2="538" y2="410" gradientUnits="userSpaceOnUse">
    <stop offset="0%" stop-color="#6f7fd2"/>
    <stop offset="60%" stop-color="#92a0e4"/>
    <stop offset="100%" stop-color="#aab6ef"/>
  </linearGradient>
</defs>
<path fill="url(#swoosh-gradient)" fill-rule="evenodd" d="M 486.980 209.701 C 480.100 222.313, 459.134 251, 456.796 251 C 455.474 251, 453.366 245.391, 451.923 238.032 L 450.654 231.565 449.263 238.448 C 446.451 252.361, 442.821 256.051, 428.500 259.554 C 425.500 260.288, 425.500 260.288, 429.500 261.145 C 434.098 262.131, 441 265.004, 441 265.933 C 441 269.124, 377.519 321, 373.615 321 C 372.639 321, 369 313.193, 369 311.099 C 369 310.009, 368.550 308.840, 368 308.500 C 367.426 308.145, 367 309.051, 367 310.625 C 367 318.318, 360.167 325.163, 350.780 326.874 C 346.500 327.654, 346.500 327.654, 352.250 328.898 C 355.413 329.582, 357.982 330.447, 357.959 330.821 C 357.898 331.843, 346.190 338.840, 330.500 347.233 C 318.276 353.771, 279.244 370.649, 258.500 378.366 C 243.614 383.904, 193.091 401.317, 185.203 403.629 C 176.498 406.179, 175 406.087, 175 403 C 175 399.873, 173.284 399.828, 172.662 402.940 C 171.936 406.570, 169.197 409.176, 164.294 410.901 C 162.207 411.635, 156.450 414.148, 151.500 416.485 C 146.550 418.822, 140.700 421.300, 138.500 421.993 C 122.195 427.124, 89.030 448.153, 73.150 463.429 C 62.240 473.925, 50.872 489, 53.867 489 C 54.373 489, 55.005 488.429, 55.273 487.731 C 56.566 484.362, 66.993 473.390, 75.268 466.691 C 96.685 449.353, 123.869 434.589, 161.441 419.891 C 172.002 415.760, 172.937 415.849, 173 421 C 173.043 424.520, 174.964 421.466, 174.985 417.844 C 174.999 415.413, 175.945 414.789, 186.146 410.483 C 192.276 407.896, 205.663 402.975, 215.896 399.550 C 226.128 396.124, 236.460 392.315, 238.855 391.087 C 241.250 389.858, 242.910 389.336, 242.546 389.926 C 241.503 391.613, 242.992 391.271, 255.639 386.915 C 286.204 376.387, 336.167 353.323, 359.618 338.916 C 361.333 337.862, 363.174 337, 363.710 337 C 365.040 337, 366.997 343.874, 367.015 348.616 C 367.027 351.492, 367.282 352.111, 368 351 C 368.533 350.175, 368.976 348.126, 368.985 346.446 C 369.025 338.394, 374.364 332.310, 385 328.194 C 387.500 327.227, 387.500 327.227, 384.845 326.529 C 382.349 325.873, 382.768 325.437, 391.845 319.248 C 407.243 308.750, 422.748 296.014, 438.176 281.192 C 447.883 271.867, 448.336 271.878, 449.650 281.460 C 450.344 286.526, 452 287.638, 452 283.038 C 452 278.441, 455.693 269.668, 458.936 266.561 C 460.691 264.880, 464.400 263.044, 468.183 261.985 C 474.540 260.204, 474.498 259.651, 467.924 258.565 C 459.751 257.215, 459.791 256.984, 471.171 239.956 C 481.289 224.815, 492.960 203.627, 491.814 202.480 C 491.495 202.162, 489.320 205.411, 486.980 209.701 M 253 384 C 249.975 385.598, 247.950 386.906, 248.500 386.906 C 249.050 386.906, 251.975 385.598, 255 384 C 258.025 382.402, 260.050 381.094, 259.500 381.094 C 258.950 381.094, 256.025 382.402, 253 384"/>
<path fill="url(#moon-gradient)" fill-rule="evenodd" d="M 292 57.623 C 233.009 65.585, 180.118 98.813, 148.001 148.089 C 103.236 216.768, 101.888 299.363, 144.415 367.816 C 147.598 372.939, 150.353 376.980, 150.538 376.795 C 150.723 376.611, 147.606 369.934, 143.613 361.958 C 103.043 280.934, 119.029 185.319, 183.899 120.997 C 252.432 53.044, 356.114 43.369, 436.955 97.382 C 448.815 105.306, 452.194 106.740, 444.805 100.712 C 422.622 82.616, 390.428 66.866, 362.500 60.447 C 343.085 55.984, 313.053 54.781, 292 57.623"/>
<path fill="url(#lower-arc-gradient)" fill-rule="evenodd" d="M 535.761 275.681 C 538.617 347.960, 500.774 420.979, 439.940 460.569 C 375.823 502.296, 293.998 503.791, 228.805 464.427 C 222.037 460.340, 215.488 456.267, 214.250 455.376 C 213.012 454.485, 212 454.177, 212 454.692 C 212 456.769, 234.131 472.319, 247 479.283 C 294.740 505.120, 352.771 509.446, 403.721 490.968 C 476.627 464.527, 528.517 397.592, 537.111 318.904 C 538.410 307.014, 537.794 268.881, 536.241 265 C 535.533 263.231, 535.392 266.356, 535.761 275.681"/>
<path fill="#3f5094" d="M513.5 100.2
C520.36 145.65 527.23 152.82 570.7 160
C527.23 167.18 520.36 174.35 513.5 219.8
C506.64 174.35 499.77 167.18 456.3 160
C499.77 152.82 506.64 145.65 513.5 100.2Z"/><path fill="#36447d" d="M220.5 332.28
C222.89 353.26 225.29 355.88 244.44 358.5
C225.29 361.12 222.89 363.74 220.5 384.72
C218.11 363.74 215.71 361.12 196.56 358.5
C215.71 355.88 218.11 353.26 220.5 332.28Z"/><path fill="#354073" d="M283 399.33
C284.54 413.47 286.08 415.23 298.39 417
C286.08 418.77 284.54 420.53 283 434.67
C281.46 420.53 279.92 418.77 267.61 417
C279.92 415.23 281.46 413.47 283 399.33Z"/><path fill="#081856" d="M50.5 492.58
C52.29 506.92 54.08 508.71 68.42 510.5
C54.08 512.29 52.29 514.08 50.5 528.42
C48.71 514.08 46.92 512.29 32.58 510.5
C46.92 508.71 48.71 506.92 50.5 492.58Z"/><path fill="#394375" d="M392 205.58
C393.73 219.92 395.46 221.71 409.28 223.5
C395.46 225.29 393.73 227.08 392 241.42
C390.27 227.08 388.54 225.29 374.72 223.5
C388.54 221.71 390.27 219.92 392 205.58Z"/><path fill="#081856" d="M572.5 76.72
C574.16 90.54 575.83 92.27 589.14 94
C575.83 95.73 574.16 97.46 572.5 111.28
C570.84 97.46 569.17 95.73 555.86 94
C569.17 92.27 570.84 90.54 572.5 76.72Z"/><path fill="#071856" d="M38 423.86
C39.6 437.17 41.2 438.84 54 440.5
C41.2 442.16 39.6 443.83 38 457.14
C36.4 443.83 34.8 442.16 22 440.5
C34.8 438.84 36.4 437.17 38 423.86Z"/><path fill="#7c89c0" d="M452 306.14
C453.47 318.43 454.94 319.96 466.72 321.5
C454.94 323.04 453.47 324.57 452 336.86
C450.53 324.57 449.06 323.04 437.28 321.5
C449.06 319.96 450.53 318.43 452 306.14Z"/><path fill="#394375" d="M177 288.42
C178.34 299.68 179.69 301.09 190.44 302.5
C179.69 303.91 178.34 305.32 177 316.58
C175.66 305.32 174.31 303.91 163.56 302.5
C174.31 301.09 175.66 299.68 177 288.42Z"/><path fill="#626b94" d="M80 361.7
C80.85 372.71 81.7 373.6 92.16 374.5
C81.7 375.4 80.85 376.29 80 387.3
C79.15 376.29 78.3 375.4 67.84 374.5
C78.3 373.6 79.15 372.71 80 361.7Z"/><path fill="#7781bf" d="M422 162.84
C422.85 173.3 423.7 174.15 434.16 175
C423.7 175.85 422.85 176.7 422 187.16
C421.15 176.7 420.3 175.85 409.84 175
C420.3 174.15 421.15 173.3 422 162.84Z"/><path fill="#081856" d="M572 42.98
C572.76 52.89 573.52 53.69 582.88 54.5
C573.52 55.31 572.76 56.11 572 66.02
C571.24 56.11 570.48 55.31 561.12 54.5
C570.48 53.69 571.24 52.89 572 42.98Z"/><path fill="#081856" d="M403 348.26
C403.67 357.07 404.34 357.78 412.6 358.5
C404.34 359.22 403.67 359.93 403 368.74
C402.33 359.93 401.66 359.22 393.4 358.5
C401.66 357.78 402.33 357.07 403 348.26Z"/><path fill="#99a4d3" d="M324 304.98
C324.85 314.89 325.7 315.69 336.16 316.5
C325.7 317.31 324.85 318.11 324 328.02
C323.15 318.11 322.3 317.31 311.84 316.5
C322.3 315.69 323.15 314.89 324 304.98Z"/><path fill="#666f9d" d="M286.5 294.9
C287.23 304.45 287.95 305.22 296.86 306
C287.95 306.78 287.23 307.55 286.5 317.1
C285.77 307.55 285.05 306.78 276.14 306
C285.05 305.22 285.77 304.45 286.5 294.9Z"/><path fill="#081856" d="M536 21.9
C536.78 31.45 537.55 32.22 547.1 33
C537.55 33.78 536.78 34.55 536 44.1
C535.22 34.55 534.45 33.78 524.9 33
C534.45 32.22 535.22 31.45 536 21.9Z"/><path fill="#93a1bb" d="M460.5 101.38
C461.23 109.65 461.95 110.33 470.86 111
C461.95 111.67 461.23 112.35 460.5 120.62
C459.77 112.35 459.05 111.67 450.14 111
C459.05 110.33 459.77 109.65 460.5 101.38Z"/><path fill="#081856" d="M556 204.14
C556.67 213.05 557.35 213.77 565.62 214.5
C557.35 215.23 556.67 215.95 556 224.86
C555.33 215.95 554.65 215.23 546.38 214.5
C554.65 213.77 555.33 213.05 556 204.14Z"/><path fill="#081856" d="M352.5 224.62
C353.12 232.26 353.74 232.88 361.38 233.5
C353.74 234.12 353.12 234.74 352.5 242.38
C351.88 234.74 351.26 234.12 343.62 233.5
C351.26 232.88 351.88 232.26 352.5 224.62Z"/><path fill="#071856" d="M412.5 266.1
C413.05 272.46 413.54 272.95 419.9 273.5
C413.54 274.05 413.05 274.54 412.5 280.9
C411.95 274.54 411.46 274.05 405.1 273.5
C411.46 272.95 411.95 272.46 412.5 266.1Z"/><path fill="#6d7fd2" d="M346 376.86
C346.57 383.86 347.14 384.43 354.14 385
C347.14 385.57 346.57 386.14 346 393.14
C345.43 386.14 344.86 385.57 337.86 385
C344.86 384.43 345.43 383.86 346 376.86Z"/><path fill="#6d7fd2" d="M502.5 252.1
C503.05 258.46 503.54 258.95 509.9 259.5
C503.54 260.05 503.05 260.54 502.5 266.9
C501.95 260.54 501.46 260.05 495.1 259.5
C501.46 258.95 501.95 258.46 502.5 252.1Z"/><path fill="#6b79bc" d="M103 410.34
C103.55 416.07 103.93 416.45 109.66 417
C103.93 417.55 103.55 417.93 103 423.66
C102.45 417.93 102.07 417.55 96.34 417
C102.07 416.45 102.45 416.07 103 410.34Z"/><path fill="#6d7fd2" d="M372 271.34
C372.55 277.07 372.93 277.45 378.66 278
C372.93 278.55 372.55 278.93 372 284.66
C371.45 278.93 371.07 278.55 365.34 278
C371.07 277.45 371.45 277.07 372 271.34Z"/><path fill="#9fa8e4" d="M398 279.34
C398.55 285.07 398.93 285.45 404.66 286
C398.93 286.55 398.55 286.93 398 292.66
C397.45 286.93 397.07 286.55 391.34 286
C397.07 285.45 397.45 285.07 398 279.34Z"/><path fill="#4d5d9f" d="M278.5 344.58
C279.05 349.67 279.33 349.95 284.42 350.5
C279.33 351.05 279.05 351.33 278.5 356.42
C277.95 351.33 277.67 351.05 272.58 350.5
C277.67 349.95 277.95 349.67 278.5 344.58Z"/><path fill="#6d7fd2" d="M133.5 450.34
C134.05 456.07 134.33 456.45 139.42 457
C134.33 457.55 134.05 457.93 133.5 463.66
C132.95 457.93 132.67 457.55 127.58 457
C132.67 456.45 132.95 456.07 133.5 450.34Z"/><path fill="#6d7fd2" d="M194 436.58
C194.55 441.67 194.93 441.95 200.66 442.5
C194.93 443.05 194.55 443.33 194 448.42
C193.45 443.33 193.07 443.05 187.34 442.5
C193.07 441.95 193.45 441.67 194 436.58Z"/><path fill="#3b4e90" d="M169.5 385.82
C170.05 390.27 170.33 390.45 175.42 391
C170.33 391.55 170.05 391.73 169.5 396.18
C168.95 391.73 168.67 391.55 163.58 391
C168.67 390.45 168.95 390.27 169.5 385.82Z"/><path fill="#6d7fd2" d="M318 372.82
C318.55 377.27 318.73 377.45 323.18 378
C318.73 378.55 318.55 378.73 318 383.18
C317.45 378.73 317.27 378.55 312.82 378
C317.27 377.45 317.45 377.27 318 372.82Z"/><path fill="#404f8d" d="M144 395.82
C144.55 400.27 144.73 400.45 149.18 401
C144.73 401.55 144.55 401.73 144 406.18
C143.45 401.73 143.27 401.55 138.82 401
C143.27 400.45 143.45 400.27 144 395.82Z"/><path fill="#6d7fd2" d="M206.5 413.06
C207.05 416.88 207.12 416.95 210.94 417.5
C207.12 418.05 207.05 418.12 206.5 421.94
C205.95 418.12 205.88 418.05 202.06 417.5
C205.88 416.95 205.95 416.88 206.5 413.06Z"/>
</svg>