<svg xmlns="http://www.w3.org/2000/svg" width="611" height="543" aria-label="Hoshikuzu logo mark" color="#fff" viewBox="0 0 611 543"><path fill="currentColor" fill-rule="evenodd" d="M292 57.62c-59 7.97-111.88 41.2-144 90.47-44.76 68.68-46.11 151.27-3.58 219.73 3.18 5.12 5.93 9.16 6.12 8.98.18-.19-2.93-6.87-6.93-14.84-40.57-81.03-24.58-176.64 40.29-240.96 68.53-67.96 172.21-77.63 253.05-23.62 11.86 7.93 15.24 9.36 7.85 3.33-22.18-18.1-54.37-33.84-82.3-40.26-19.41-4.47-49.45-5.67-70.5-2.83M486.98 209.7c-6.88 12.61-27.85 41.3-30.18 41.3-1.33 0-3.43-5.6-4.88-12.97l-1.27-6.46-1.39 6.88c-2.8 13.91-6.44 17.6-20.76 21.1-3 .74-3 .74 1 1.6 4.6.98 11.5 3.85 11.5 4.78 0 3.2-63.48 55.07-67.39 55.07-.97 0-4.61-7.8-4.61-9.9 0-1.1-.45-2.26-1-2.6-.57-.35-1 .55-1 2.13 0 7.69-6.83 14.53-16.22 16.24-4.28.78-4.28.78 1.47 2.03 3.16.68 5.73 1.55 5.7 1.92-.05 1.02-11.76 8.02-27.45 16.41-12.22 6.54-51.26 23.42-72 31.14-14.89 5.53-65.4 22.95-73.3 25.26-8.7 2.55-10.2 2.46-10.2-.63 0-3.13-1.72-3.17-2.34-.06-.72 3.63-3.46 6.24-8.37 7.96-2.08.74-7.84 3.25-12.79 5.59s-10.8 4.81-13 5.5c-16.3 5.13-49.47 26.16-65.35 41.44C62.24 473.93 50.87 489 53.87 489c.5 0 1.13-.57 1.4-1.27 1.3-3.37 11.72-14.34 20-21.04 21.42-17.34 48.6-32.1 86.17-46.8 10.56-4.13 11.5-4.04 11.56 1.11.04 3.52 1.96.47 1.99-3.16 0-2.43.96-3.05 11.16-7.36 6.13-2.58 19.51-7.5 29.75-10.93s20.56-7.24 22.96-8.46c2.39-1.23 4.05-1.75 3.69-1.16-1.05 1.68.44 1.34 13.09-3.02 30.56-10.52 80.53-33.59 103.98-48 1.71-1.05 3.55-1.91 4.09-1.91 1.33 0 3.29 6.87 3.3 11.62.02 2.87.27 3.5.99 2.38.53-.83.98-2.87.99-4.55q.06-12.08 16.01-18.26c2.5-.96 2.5-.96-.15-1.66-2.5-.66-2.08-1.1 7-7.28 15.4-10.5 30.9-23.24 46.33-38.06 9.7-9.32 10.16-9.31 11.47.27.7 5.07 2.35 6.18 2.35 1.58s3.7-13.37 6.94-16.48c1.75-1.68 5.46-3.52 9.24-4.58 6.36-1.78 6.32-2.33-.26-3.42-8.17-1.35-8.13-1.58 3.25-18.6 10.12-15.15 21.79-36.33 20.64-37.48-.31-.32-2.49 2.93-4.83 7.22m48.78 65.98c2.86 72.28-34.99 145.3-95.82 184.89-64.12 41.73-145.94 43.22-211.13 3.86-6.77-4.09-13.32-8.16-14.56-9.05s-2.25-1.2-2.25-.69c0 2.08 22.13 17.63 35 24.6 47.74 25.83 105.77 30.16 156.72 11.68 72.9-26.44 124.8-93.38 133.4-172.07 1.29-11.89.67-50.02-.88-53.9-.7-1.77-.85 1.36-.48 10.68M253 384c-3.02 1.6-5.05 2.9-4.5 2.9s3.48-1.3 6.5-2.9 5.05-2.9 4.5-2.9-3.47 1.3-6.5 2.9m260.5-283.8c6.86 45.45 13.73 52.62 57.2 59.8-43.47 7.18-50.34 14.35-57.2 59.8-6.86-45.45-13.73-52.62-57.2-59.8 43.47-7.18 50.34-14.35 57.2-59.8m-293 232.08c2.39 20.98 4.79 23.6 23.94 26.22-19.15 2.62-21.55 5.24-23.94 26.22-2.39-20.98-4.79-23.6-23.94-26.22 19.15-2.62 21.55-5.24 23.94-26.22m62.5 67.05c1.54 14.14 3.08 15.9 15.39 17.67-12.31 1.77-13.85 3.53-15.39 17.67-1.54-14.14-3.08-15.9-15.39-17.67 12.31-1.77 13.85-3.53 15.39-17.67M50.5 492.58c1.79 14.34 3.58 16.13 17.92 17.92-14.34 1.79-16.13 3.58-17.92 17.92-1.79-14.34-3.58-16.13-17.92-17.92 14.34-1.79 16.13-3.58 17.92-17.92m341.5-287c1.73 14.34 3.46 16.13 17.28 17.92-13.82 1.79-15.55 3.58-17.28 17.92-1.73-14.34-3.46-16.13-17.28-17.92 13.82-1.79 15.55-3.58 17.28-17.92M572.5 76.72c1.66 13.82 3.33 15.55 16.64 17.28-13.31 1.73-14.98 3.46-16.64 17.28-1.66-13.82-3.33-15.55-16.64-17.28 13.31-1.73 14.98-3.46 16.64-17.28M38 423.86c1.6 13.31 3.2 14.98 16 16.64-12.8 1.66-14.4 3.33-16 16.64-1.6-13.31-3.2-14.98-16-16.64 12.8-1.66 14.4-3.33 16-16.64m414-117.72c1.47 12.29 2.94 13.82 14.72 15.36-11.78 1.54-13.25 3.07-14.72 15.36-1.47-12.29-2.94-13.82-14.72-15.36 11.78-1.54 13.25-3.07 14.72-15.36m-275-17.72c1.34 11.26 2.69 12.67 13.44 14.08-10.75 1.41-12.1 2.82-13.44 14.08-1.34-11.26-2.69-12.67-13.44-14.08 10.75-1.41 12.1-2.82 13.44-14.08M80 361.7c.85 11.01 1.7 11.9 12.16 12.8-10.46.9-11.31 1.79-12.16 12.8-.85-11.01-1.7-11.9-12.16-12.8 10.46-.9 11.31-1.79 12.16-12.8m342-198.86c.85 10.46 1.7 11.31 12.16 12.16-10.46.85-11.31 1.7-12.16 12.16-.85-10.46-1.7-11.31-12.16-12.16 10.46-.85 11.31-1.7 12.16-12.16M572 42.98c.76 9.91 1.52 10.71 10.88 11.52-9.36.81-10.12 1.61-10.88 11.52-.76-9.91-1.52-10.71-10.88-11.52 9.36-.81 10.12-1.61 10.88-11.52M403 348.26c.67 8.81 1.34 9.52 9.6 10.24-8.26.72-8.93 1.43-9.6 10.24-.67-8.81-1.34-9.52-9.6-10.24 8.26-.72 8.93-1.43 9.6-10.24m-79-43.28c.85 9.91 1.7 10.71 12.16 11.52-10.46.81-11.31 1.61-12.16 11.52-.85-9.91-1.7-10.71-12.16-11.52 10.46-.81 11.31-1.61 12.16-11.52m-37.5-10.08c.73 9.55 1.45 10.32 10.36 11.1-8.91.78-9.63 1.55-10.36 11.1-.73-9.55-1.45-10.32-10.36-11.1 8.91-.78 9.63-1.55 10.36-11.1M536 21.9c.78 9.55 1.55 10.32 11.1 11.1-9.55.78-10.32 1.55-11.1 11.1-.78-9.55-1.55-10.32-11.1-11.1 9.55-.78 10.32-1.55 11.1-11.1m-75.5 79.48c.73 8.27 1.45 8.95 10.36 9.62-8.91.67-9.63 1.35-10.36 9.62-.73-8.27-1.45-8.95-10.36-9.62 8.91-.67 9.63-1.35 10.36-9.62M556 204.14c.67 8.91 1.35 9.63 9.62 10.36-8.27.73-8.95 1.45-9.62 10.36-.67-8.91-1.35-9.63-9.62-10.36 8.27-.73 8.95-1.45 9.62-10.36m-203.5 20.48c.62 7.64 1.24 8.26 8.88 8.88-7.64.62-8.26 1.24-8.88 8.88-.62-7.64-1.24-8.26-8.88-8.88 7.64-.62 8.26-1.24 8.88-8.88m60 41.48c.55 6.36 1.04 6.85 7.4 7.4-6.36.55-6.85 1.04-7.4 7.4-.55-6.36-1.04-6.85-7.4-7.4 6.36-.55 6.85-1.04 7.4-7.4M346 376.86c.57 7 1.14 7.57 8.14 8.14-7 .57-7.57 1.14-8.14 8.14-.57-7-1.14-7.57-8.14-8.14 7-.57 7.57-1.14 8.14-8.14M502.5 252.1c.55 6.36 1.04 6.85 7.4 7.4-6.36.55-6.85 1.04-7.4 7.4-.55-6.36-1.04-6.85-7.4-7.4 6.36-.55 6.85-1.04 7.4-7.4M103 410.34c.55 5.73.93 6.11 6.66 6.66-5.73.55-6.11.93-6.66 6.66-.55-5.73-.93-6.11-6.66-6.66 5.73-.55 6.11-.93 6.66-6.66m269-139c.55 5.73.93 6.11 6.66 6.66-5.73.55-6.11.93-6.66 6.66-.55-5.73-.93-6.11-6.66-6.66 5.73-.55 6.11-.93 6.66-6.66m26 8c.55 5.73.93 6.11 6.66 6.66-5.73.55-6.11.93-6.66 6.66-.55-5.73-.93-6.11-6.66-6.66 5.73-.55 6.11-.93 6.66-6.66m-119.5 65.24c.55 5.09.83 5.37 5.92 5.92-5.09.55-5.37.83-5.92 5.92-.55-5.09-.83-5.37-5.92-5.92 5.09-.55 5.37-.83 5.92-5.92m-145 105.76c.55 5.73.83 6.11 5.92 6.66-5.09.55-5.37.93-5.92 6.66-.55-5.73-.83-6.11-5.92-6.66 5.09-.55 5.37-.93 5.92-6.66m60.5-13.76c.55 5.09.93 5.37 6.66 5.92-5.73.55-6.11.83-6.66 5.92-.55-5.09-.93-5.37-6.66-5.92 5.73-.55 6.11-.83 6.66-5.92m-24.5-50.76c.55 4.45.83 4.63 5.92 5.18-5.09.55-5.37.73-5.92 5.18-.55-4.45-.83-4.63-5.92-5.18 5.09-.55 5.37-.73 5.92-5.18m148.5-13c.55 4.45.73 4.63 5.18 5.18-4.45.55-4.63.73-5.18 5.18-.55-4.45-.73-4.63-5.18-5.18 4.45-.55 4.63-.73 5.18-5.18m-174 23c.55 4.45.73 4.63 5.18 5.18-4.45.55-4.63.73-5.18 5.18-.55-4.45-.73-4.63-5.18-5.18 4.45-.55 4.63-.73 5.18-5.18m62.5 17.24c.55 3.82.62 3.89 4.44 4.44-3.82.55-3.89.62-4.44 4.44-.55-3.82-.62-3.89-4.44-4.44 3.82-.55 3.89-.62 4.44-4.44"/></svg>